<?xml version="1.0" encoding="UTF-8"?>
<!DOCTYPE svg PUBLIC "-//W3C//DTD SVG 1.1//EN" "http://www.w3.org/Graphics/SVG/1.1/DTD/svg11.dtd">
<!-- Creator: CorelDRAW 2026 -->
<svg xmlns="http://www.w3.org/2000/svg" xml:space="preserve" width="536px" height="178px" version="1.1" style="shape-rendering:geometricPrecision; text-rendering:geometricPrecision; image-rendering:optimizeQuality; fill-rule:evenodd; clip-rule:evenodd"
viewBox="0 0 364.23 121.12"
 xmlns:xlink="http://www.w3.org/1999/xlink"
 xmlns:xodm="http://www.corel.com/coreldraw/odm/2003">
 <defs>
  <style type="text/css">
   <![CDATA[
    .str0 {stroke:#000066;stroke-width:1.6;stroke-miterlimit:22.9256}
    .fil0 {fill:#000066}
   ]]>
  </style>
 </defs>
 <g id="Layer_x0020_1">
  <metadata id="CorelCorpID_0Corel-Layer"/>
  <g id="_33389560416">
   <path class="fil0 str0" d="M352.69 117.77l0.72 -51.92c0,0 -0.15,-3.87 4.96,-3.92 5.11,-0.05 4.65,4.36 4.65,4.36l0.4 53.83 -10.73 -2.35z"/>
   <path class="fil0 str0" d="M0.81 117.77l0.72 -51.92c0,0 -0.15,-3.87 4.96,-3.92 5.11,-0.05 4.65,4.36 4.65,4.36l0.4 53.83 -10.73 -2.35z"/>
   <path class="fil0 str0" d="M353.32 40.92l0.09 -6.47c0,0 -0.15,-3.87 4.96,-3.92 5.11,-0.06 4.65,4.36 4.65,4.36l0.04 6.03 -0.04 6.04c0,0 0.46,4.41 -4.65,4.36 -5.11,-0.05 -4.96,-3.92 -4.96,-3.92l-0.09 -6.48z"/>
   <path class="fil0 str0" d="M1.44 40.92l0.09 -6.47c0,0 -0.15,-3.87 4.96,-3.92 5.11,-0.06 4.65,4.36 4.65,4.36l0.04 6.03 -0.04 6.04c0,0 0.46,4.41 -4.65,4.36 -5.11,-0.05 -4.96,-3.92 -4.96,-3.92l-0.09 -6.48z"/>
   <path class="fil0 str0" d="M353.32 11.2l0.09 -6.48c0,0 -0.15,-3.86 4.96,-3.92 5.11,-0.05 4.65,4.36 4.65,4.36l0.04 6.04 -0.04 6.04c0,0 0.46,4.41 -4.65,4.36 -5.11,-0.06 -4.96,-3.93 -4.96,-3.93l-0.09 -6.47z"/>
   <path class="fil0 str0" d="M1.44 11.2l0.09 -6.48c0,0 -0.15,-3.86 4.96,-3.92 5.11,-0.05 4.65,4.36 4.65,4.36l0.04 6.04 -0.04 6.04c0,0 0.46,4.41 -4.65,4.36 -5.11,-0.06 -4.96,-3.93 -4.96,-3.93l-0.09 -6.47z"/>
  </g>
 </g>
</svg>
