<?xml version="1.0" encoding="UTF-8"?>
<!DOCTYPE svg PUBLIC "-//W3C//DTD SVG 1.1//EN" "http://www.w3.org/Graphics/SVG/1.1/DTD/svg11.dtd">
<!-- Creator: CorelDRAW 2026 -->
<svg xmlns="http://www.w3.org/2000/svg" xml:space="preserve" width="309px" height="108px" version="1.1" style="shape-rendering:geometricPrecision; text-rendering:geometricPrecision; image-rendering:optimizeQuality; fill-rule:evenodd; clip-rule:evenodd"
viewBox="0 0 170.19 59.62"
 xmlns:xlink="http://www.w3.org/1999/xlink"
 xmlns:xodm="http://www.corel.com/coreldraw/odm/2003">
 <defs>
  <style type="text/css">
   <![CDATA[
    .str0 {stroke:#C10078;stroke-width:1.3;stroke-miterlimit:22.9256}
    .fil0 {fill:#C10078}
   ]]>
  </style>
 </defs>
 <g id="Layer_x0020_1">
  <metadata id="CorelCorpID_0Corel-Layer"/>
  <path class="fil0 str0" d="M31.9 0.65c17.26,0 31.25,16.34 31.25,36.49 0,7.92 -2.16,15.25 -5.84,21.23 -5.66,-9.24 -14.94,-15.26 -25.41,-15.26 -10.48,0 -19.75,6.02 -25.42,15.26 -3.67,-5.98 -5.83,-13.31 -5.83,-21.23 0,-20.15 13.99,-36.49 31.25,-36.49z"/>
  <path class="fil0 str0" d="M138.29 0.65c17.26,0 31.25,16.34 31.25,36.49 0,7.92 -2.16,15.25 -5.83,21.23 -5.67,-9.24 -14.94,-15.26 -25.42,-15.26 -10.47,0 -19.74,6.02 -25.41,15.26 -3.67,-5.98 -5.84,-13.31 -5.84,-21.23 0,-20.15 14,-36.49 31.25,-36.49z"/>
 </g>
</svg>
