<?xml version="1.0" encoding="UTF-8"?>
<!DOCTYPE svg PUBLIC "-//W3C//DTD SVG 1.1//EN" "http://www.w3.org/Graphics/SVG/1.1/DTD/svg11.dtd">
<!-- Creator: CorelDRAW 2026 -->
<svg xmlns="http://www.w3.org/2000/svg" xml:space="preserve" width="592px" height="485px" version="1.1" style="shape-rendering:geometricPrecision; text-rendering:geometricPrecision; image-rendering:optimizeQuality; fill-rule:evenodd; clip-rule:evenodd"
viewBox="0 0 414.82 339.88"
 xmlns:xlink="http://www.w3.org/1999/xlink"
 xmlns:xodm="http://www.corel.com/coreldraw/odm/2003">
 <defs>
  <style type="text/css">
   <![CDATA[
    .str0 {stroke:white;stroke-width:1.66;stroke-miterlimit:22.9256}
    .fil0 {fill:white}
   ]]>
  </style>
 </defs>
 <g id="Layer_x0020_1">
  <metadata id="CorelCorpID_0Corel-Layer"/>
  <path class="fil0 str0" d="M378.82 121.49c-11.17,-35.24 -34.27,-65.74 -64.92,-87.26 -29.84,-20.96 -66.82,-33.4 -106.9,-33.4 -39.81,0 -76.65,12.45 -106.4,33.43 -30.51,21.52 -53.57,52.01 -64.73,87.23l-0.23 0.44 -0.56 0.13 -17.11 0c-1.88,0.97 -19.5,11.17 -16.88,54.48 3.22,41.9 13.99,51.34 15.55,52.49l12.79 0 0.55 0.2 0.21 0.31c13.77,32.42 38.39,60.13 69.88,79.56 30.59,18.88 67.69,29.96 107.63,29.96 39.94,0 77.04,-11.08 107.64,-29.96 31.48,-19.43 56.1,-47.14 69.88,-79.56l0.76 -0.51 12.09 0c1.59,-1.11 12.95,-10.48 15.54,-52.48l0 -0.01c3.29,-43.39 -15,-53.55 -16.88,-54.48l-17.12 0 -0.79 -0.57z"/>
 </g>
</svg>
